# xmcd
#
# Track frame offsets:
#	150
#	15745
#	38406
#	57673
#	75636
#	84422
#	95408
#	121980
#	132004
#	145133
#	156991
#	179825
#	193450
#	209884
#
# Disc length: 3032 seconds
#
# Revision: 1
# Processed by: cddbd v1.5.1PL0 Copyright (c) Steve Scherf et al.
# Submitted via: audiograbber 1.83.01
#
DISCID=cb0bd60e
DTITLE=Kåre Virud - Sitte fast på Notodden...
DYEAR=2005
DGENRE=
TTITLE0=Eskimoen Quinn
TTITLE1=Det ække meg, tjei
TTITLE2=Kjære rikstelefondame
TTITLE3=Akkurat som ei dame
TTITLE4=Jeg skal være mann din i natt
TTITLE5=Tru hva du trur, det er greitt
TTITLE6=Sitte fast på Notodden med Briskeby blues på nytt
TTITLE7=På kjøret igjen
TTITLE8=Stiller et døgn for mye
TTITLE9=Svever i det blå
TTITLE10=Når som helst nå
TTITLE11=Sitte fast på Notodden med Briskeby blues på nytt (Bonus)
TTITLE12=Mannen i meg (Bonus)
TTITLE13=Alt som var er over, søster blå (Bonus)
EXTD=
EXTT0=
EXTT1=
EXTT2=
EXTT3=
EXTT4=
EXTT5=
EXTT6=
EXTT7=
EXTT8=
EXTT9=
EXTT10=
EXTT11=
EXTT12=
EXTT13=
PLAYORDER=
